<svg width="47" height="49" viewBox="0 0 47 49" fill="none" xmlns="http://www.w3.org/2000/svg">
<path d="M35 45C41.2132 45 46.25 39.9632 46.25 33.75C46.25 27.5368 41.2132 22.5 35 22.5C28.7868 22.5 23.75 27.5368 23.75 33.75C23.75 39.9632 28.7868 45 35 45Z" fill="#CCFF8B"/>
<path d="M42.8985 7.32684C35.7698 7.32684 26.3856 4.92118 23.0439 0.463142C22.5975 -0.0789262 21.796 -0.156311 21.2539 0.290054C21.1907 0.342018 21.1328 0.399963 21.0808 0.463142C17.7387 4.92118 8.35495 7.32684 1.22582 7.32684C0.548797 7.32684 0 7.87564 0 8.55266V24.4865C0 37.9641 11.7038 46.0888 21.7246 48.9521C21.9452 49.016 22.1792 49.016 22.3997 48.9521C32.4205 46.0888 44.1243 37.9641 44.1243 24.4865V8.55266C44.1243 7.87564 43.5755 7.32684 42.8985 7.32684ZM41.6731 24.4865C41.6731 36.4508 31.1876 43.786 22.0622 46.4982C12.9367 43.786 2.45127 36.4508 2.45127 24.4865V9.7568C9.53479 9.51717 17.9133 7.23338 22.0622 3.06096C26.2107 7.23338 34.5892 9.51717 41.6731 9.7568V24.4865Z" fill="#12141D"/>
<path d="M19.2518 23.62C18.7816 23.1329 18.0058 23.1195 17.5187 23.5897C17.032 24.06 17.0185 24.8358 17.4884 25.3229C17.4985 25.333 17.5086 25.3431 17.5187 25.3528L19.97 27.8044C20.4485 28.2829 21.2242 28.2833 21.7027 27.8048L21.7031 27.8044L26.606 22.9015C27.0928 22.4312 27.1062 21.6555 26.6359 21.1684C26.166 20.6816 25.3899 20.6682 24.9032 21.1381C24.8927 21.1482 24.8826 21.1583 24.8729 21.1684L20.8366 25.2044L19.2518 23.62Z" fill="#12141D"/>
<path d="M9.80554 24.4868C9.80554 31.2559 15.2931 36.7435 22.0623 36.7435C28.8318 36.7435 34.319 31.2559 34.319 24.4868C34.319 17.7173 28.8318 12.2297 22.0623 12.2297C15.2965 12.238 9.81339 17.7207 9.80554 24.4868ZM31.8677 24.4868C31.8677 29.9019 27.4777 34.2919 22.0623 34.2919C16.6472 34.2919 12.2572 29.9019 12.2572 24.4868C12.2572 19.0714 16.6472 14.6814 22.0623 14.6814C27.4755 14.6866 31.8625 19.0736 31.8677 24.4868Z" fill="#12141D"/>
</svg>
